<?xml version="1.0" encoding="UTF-8" standalone="no"?>
<!DOCTYPE svg PUBLIC "-//W3C//DTD SVG 1.1//EN" "http://www.w3.org/Graphics/SVG/1.1/DTD/svg11.dtd">
<svg width="1818" height="728" viewBox="0 0 1818 728" fill="none" xmlns="http://www.w3.org/2000/svg">
	<g clip-path="url(#clip0_2812_118)">
		<rect x="0.103638" width="1817.3" height="728" rx="32" fill="white"/>
		<g filter="url(#filter0_d_2812_118)">
			<path d="M-399.593 -573L1873.91 -303.5L2055 989L-1194.09 818.5L-399.593 -573Z" fill="url(#paint0_linear_2812_118)"/>
		</g>
		<path d="M543.311 365.357C532.611 386.63 508.862 401.247 481.981 397.201C455.622 393.417 435.266 371.361 432.917 344.607C430.568 318.244 445.705 296.71 463.843 287.705C454.448 312.632 457.188 335.602 476.631 354.395C495.813 373.318 518.779 375.668 543.311 365.357Z" fill="#FFC700"/>
		<path d="M550.488 300.234C552.576 300.234 554.272 301.017 555.316 302.583C556.621 304.41 557.404 307.151 557.404 311.327C557.404 315.503 556.621 318.244 555.316 320.071C554.011 321.637 552.445 322.42 550.488 322.42C548.531 322.42 546.704 321.637 545.399 320.071C544.094 318.505 543.311 315.503 543.311 311.327C543.311 307.151 544.094 304.41 545.399 302.583C546.704 301.017 548.4 300.234 550.488 300.234ZM550.488 303.627C549.966 303.627 549.444 303.888 549.183 304.149C548.661 304.41 548.4 304.932 548.139 305.976C547.878 307.02 547.617 308.847 547.617 311.327C547.617 313.937 547.617 315.634 547.878 316.417C548.139 317.461 548.4 317.983 548.922 318.244C549.444 318.505 549.705 318.766 550.227 318.766C550.749 318.766 551.271 318.505 551.532 318.244C552.054 317.983 552.315 317.461 552.576 316.417C552.837 315.373 553.098 313.546 553.098 311.066C553.098 308.456 553.098 306.759 552.837 305.976C552.576 304.932 552.315 304.41 551.793 304.149C551.532 303.888 551.01 303.627 550.488 303.627Z" fill="#FFC700"/>
		<path d="M570.975 322.029H566.93V306.368C565.364 307.934 563.667 308.978 561.58 309.5V305.715C562.624 305.454 563.928 304.671 565.103 303.627C566.277 302.583 567.191 301.539 567.713 300.234H570.975V322.029Z" fill="#FFC700"/>
		<path d="M584.024 300.234C586.112 300.234 587.808 301.017 588.852 302.583C590.157 304.41 590.94 307.151 590.94 311.327C590.94 315.503 590.157 318.244 588.852 320.071C587.547 321.637 585.981 322.42 584.024 322.42C582.066 322.42 580.24 321.637 578.935 320.071C577.63 318.505 576.847 315.503 576.847 311.327C576.847 307.151 577.63 304.41 578.935 302.583C580.109 301.017 581.936 300.234 584.024 300.234ZM584.024 303.627C583.502 303.627 582.98 303.888 582.719 304.149C582.197 304.41 581.936 304.932 581.675 305.976C581.414 307.02 581.153 308.847 581.153 311.327C581.153 313.937 581.153 315.634 581.414 316.417C581.675 317.461 581.936 317.983 582.458 318.244C582.98 318.505 583.241 318.766 583.763 318.766C584.285 318.766 584.807 318.505 585.068 318.244C585.59 317.983 585.851 317.461 586.112 316.417C586.373 315.373 586.634 313.546 586.634 311.066C586.634 308.456 586.634 306.759 586.373 305.976C586.112 304.932 585.851 304.41 585.329 304.149C584.937 303.888 584.546 303.627 584.024 303.627Z" fill="#FFC700"/>
		<path d="M510.167 447.708C510.167 447.708 542.137 445.62 564.581 429.046C579.457 418.083 590.679 391.59 590.679 391.59C590.157 397.202 587.547 417.691 570.975 432.569C558.187 444.054 542.659 446.664 535.482 447.969C531.959 448.491 528.827 448.752 522.955 449.013C522.955 449.013 515.778 449.274 510.167 447.708Z" fill="#FFC700"/>
		<path d="M515.647 210.053C523.477 210.053 531.176 213.054 537.178 218.927L661.273 343.041C673.148 354.917 673.148 374.102 661.273 385.978L537.178 510.091C531.306 515.964 523.477 518.966 515.647 518.966C507.818 518.966 500.119 515.964 494.117 510.091L370.152 385.978C358.277 374.102 358.277 354.917 370.152 343.041L494.117 219.058C500.119 213.054 507.818 210.053 515.647 210.053ZM515.647 202.222C505.469 202.222 495.813 206.137 488.636 213.446L364.541 337.559C357.364 344.737 353.318 354.395 353.318 364.574C353.318 374.754 357.233 384.412 364.541 391.59L488.636 515.703C495.813 522.881 505.469 526.927 515.647 526.927C525.825 526.927 535.482 523.011 542.659 515.703L666.754 391.59C681.63 376.712 681.63 352.437 666.754 337.559L542.659 213.446C535.482 206.268 525.825 202.222 515.647 202.222Z" fill="#FFC700"/>
		<path d="M781.22 315.127H801.816L826.861 360.124L851.247 315.127H872.007L876.456 411.055H854.707L851.906 348.422L832.134 385.837H820.929L800.004 348.751L797.532 411.055H776.772L781.22 315.127Z" fill="white"/>
		<path d="M888.814 377.266C888.814 372.321 889.638 367.541 891.45 363.256C893.263 358.97 895.734 355.014 898.865 351.883C901.995 348.586 905.785 346.114 910.234 344.136C914.682 342.323 919.625 341.334 924.898 341.334C930.335 341.334 935.114 342.323 939.562 344.136C944.011 345.949 947.801 348.586 950.931 351.883C954.062 355.179 956.533 358.97 958.346 363.256C960.158 367.541 960.982 372.321 960.982 377.266C960.982 382.21 960.158 386.99 958.346 391.276C956.533 395.561 954.062 399.517 950.931 402.649C947.801 405.945 944.011 408.418 939.562 410.396C935.114 412.373 930.335 413.198 924.898 413.198C919.461 413.198 914.682 412.209 910.234 410.396C905.785 408.582 901.995 405.945 898.865 402.649C895.734 399.352 893.263 395.561 891.45 391.276C889.638 386.826 888.814 382.21 888.814 377.266ZM925.063 395.396C927.699 395.396 930.006 394.902 931.983 393.913C933.96 392.924 935.773 391.605 937.091 389.792C938.409 388.144 939.562 386.166 940.221 384.024C940.88 381.881 941.21 379.573 941.21 377.266C941.21 374.958 940.88 372.815 940.221 370.508C939.562 368.365 938.574 366.387 937.091 364.739C935.773 363.091 933.96 361.772 931.983 360.783C930.006 359.794 927.699 359.3 925.063 359.3C922.426 359.3 920.12 359.794 918.142 360.783C916 361.772 914.353 363.091 913.035 364.739C911.716 366.387 910.728 368.365 909.904 370.508C909.245 372.651 908.751 374.958 908.751 377.266C908.751 379.573 909.08 381.716 909.904 384.024C910.563 386.166 911.716 388.144 913.035 389.792C914.353 391.441 916 392.924 918.142 393.913C920.12 394.902 922.426 395.396 925.063 395.396Z" fill="white"/>
		<path d="M970.539 377.266C970.539 372.321 971.363 367.541 973.175 363.256C974.987 358.97 977.459 355.014 980.59 351.883C983.72 348.586 987.51 346.114 991.958 344.136C996.407 342.323 1001.35 341.334 1006.62 341.334C1012.06 341.334 1016.84 342.323 1021.29 344.136C1025.74 345.949 1029.53 348.586 1032.66 351.883C1035.79 355.179 1038.26 358.97 1040.07 363.256C1041.88 367.541 1042.71 372.321 1042.71 377.266C1042.71 382.21 1041.88 386.99 1040.07 391.276C1038.26 395.561 1035.79 399.517 1032.66 402.649C1029.53 405.945 1025.74 408.418 1021.29 410.396C1016.84 412.373 1012.06 413.198 1006.62 413.198C1001.19 413.198 996.407 412.209 991.958 410.396C987.51 408.582 983.72 405.945 980.59 402.649C977.459 399.352 974.987 395.561 973.175 391.276C971.363 386.826 970.539 382.21 970.539 377.266ZM1006.79 395.396C1009.42 395.396 1011.73 394.902 1013.71 393.913C1015.69 392.924 1017.5 391.605 1018.82 389.792C1020.13 388.144 1021.29 386.166 1021.95 384.024C1022.61 381.881 1022.93 379.573 1022.93 377.266C1022.93 374.958 1022.61 372.815 1021.95 370.508C1021.29 368.365 1020.3 366.387 1018.82 364.739C1017.5 363.091 1015.69 361.772 1013.71 360.783C1011.73 359.794 1009.42 359.3 1006.79 359.3C1004.15 359.3 1001.84 359.794 999.867 360.783C997.725 361.772 996.078 363.091 994.76 364.739C993.441 366.387 992.453 368.365 991.629 370.508C990.97 372.651 990.476 374.958 990.476 377.266C990.476 379.573 990.805 381.716 991.629 384.024C992.288 386.166 993.441 388.144 994.76 389.792C996.078 391.441 997.725 392.924 999.867 393.913C1001.84 394.902 1004.15 395.396 1006.79 395.396Z" fill="white"/>
		<path d="M1055.39 343.477H1075.17L1075.66 350.894C1077.8 348.257 1080.77 346.114 1084.39 344.466C1088.02 342.817 1091.81 341.993 1095.76 341.993C1103.51 341.993 1109.6 344.301 1114.22 348.916C1118.83 353.531 1120.97 360.289 1120.97 369.354V411.055H1100.21V372.156C1100.21 368.365 1099.22 365.398 1097.41 363.256C1095.6 361.113 1092.96 359.959 1089.5 359.959C1087.19 359.959 1085.22 360.289 1083.4 361.113C1081.76 361.937 1080.27 362.926 1079.12 364.409C1077.97 365.728 1077.14 367.376 1076.48 369.024C1075.99 370.837 1075.66 372.651 1075.66 374.628V410.89H1055.39V343.477Z" fill="white"/>
		<path d="M1224.28 393.254C1222.3 396.056 1219.83 398.693 1216.87 401.166C1213.9 403.638 1210.77 405.781 1207.31 407.594C1203.85 409.407 1200.06 410.89 1195.94 411.879C1191.82 412.868 1187.7 413.527 1183.25 413.527C1176 413.527 1169.25 412.209 1163.32 409.737C1157.22 407.264 1152.11 403.803 1147.66 399.353C1143.38 394.902 1139.92 389.628 1137.45 383.529C1134.98 377.431 1133.82 370.673 1133.82 363.421C1133.82 356.333 1134.98 349.74 1137.45 343.477C1139.92 337.214 1143.22 331.939 1147.66 327.324C1151.95 322.709 1157.22 319.248 1163.32 316.611C1169.41 313.973 1176.17 312.655 1183.58 312.655C1192.48 312.655 1200.22 314.303 1206.98 317.6C1213.57 320.896 1219.17 325.511 1223.62 331.774L1208.79 345.949C1205.99 341.994 1202.53 338.697 1198.58 336.225C1194.62 333.752 1190.01 332.599 1184.41 332.599C1180.12 332.599 1176.17 333.423 1172.71 334.906C1169.25 336.554 1166.28 338.697 1163.98 341.499C1161.5 344.301 1159.69 347.598 1158.37 351.224C1157.06 354.85 1156.4 358.806 1156.4 362.926C1156.4 367.212 1157.06 371.003 1158.37 374.794C1159.69 378.42 1161.5 381.551 1163.98 384.354C1166.45 387.156 1169.25 389.133 1172.54 390.617C1175.84 392.1 1179.63 392.924 1183.91 392.924C1187.37 392.924 1190.34 392.595 1192.97 391.771C1195.45 391.111 1197.75 390.122 1199.73 388.969C1201.71 387.815 1203.52 386.331 1205 384.848C1206.49 383.2 1207.97 381.716 1209.45 380.068L1224.28 393.254Z" fill="white"/>
		<path d="M1230.87 377.266C1230.87 372.321 1231.7 367.541 1233.51 363.256C1235.32 358.97 1237.79 355.014 1240.92 351.883C1244.05 348.586 1247.84 346.114 1252.29 344.136C1256.74 342.323 1261.68 341.334 1266.96 341.334C1272.39 341.334 1277.17 342.323 1281.62 344.136C1286.07 345.949 1289.86 348.586 1292.99 351.883C1296.12 355.179 1298.59 358.97 1300.4 363.256C1302.22 367.541 1303.04 372.321 1303.04 377.266C1303.04 382.21 1302.22 386.99 1300.4 391.276C1298.59 395.561 1296.12 399.517 1292.99 402.649C1289.86 405.945 1286.07 408.418 1281.62 410.396C1277.17 412.373 1272.39 413.198 1266.96 413.198C1261.52 413.198 1256.74 412.209 1252.29 410.396C1247.84 408.582 1244.05 405.945 1240.92 402.649C1237.79 399.352 1235.32 395.561 1233.51 391.276C1231.86 386.826 1230.87 382.21 1230.87 377.266ZM1267.12 395.396C1269.76 395.396 1272.06 394.902 1274.04 393.913C1276.02 392.924 1277.83 391.605 1279.15 389.792C1280.47 388.144 1281.62 386.166 1282.28 384.024C1282.94 381.881 1283.27 379.573 1283.27 377.266C1283.27 374.958 1282.94 372.815 1282.28 370.508C1281.62 368.365 1280.63 366.387 1279.15 364.739C1277.83 363.091 1276.02 361.772 1274.04 360.783C1272.06 359.794 1269.76 359.3 1267.12 359.3C1264.48 359.3 1262.18 359.794 1260.2 360.783C1258.06 361.772 1256.41 363.091 1255.09 364.739C1253.77 366.387 1252.79 368.365 1251.96 370.508C1251.14 372.651 1250.81 374.958 1250.81 377.266C1250.81 379.573 1251.14 381.716 1251.96 384.024C1252.62 386.166 1253.77 388.144 1255.09 389.792C1256.41 391.441 1258.06 392.924 1260.2 393.913C1262.18 394.902 1264.48 395.396 1267.12 395.396Z" fill="white"/>
		<path d="M1361.53 404.297C1359.39 406.769 1356.75 408.912 1353.46 410.56C1350.16 412.209 1346.37 413.033 1342.09 413.033C1337.97 413.033 1334.18 412.209 1330.56 410.56C1326.93 408.912 1323.8 406.605 1321.16 403.638C1318.53 400.671 1316.39 397.045 1314.9 392.759C1313.42 388.474 1312.6 383.694 1312.6 378.255C1312.6 372.156 1313.75 366.882 1315.89 362.432C1318.03 357.817 1320.83 354.19 1324.29 351.224C1327.75 348.257 1331.54 345.949 1335.66 344.466C1339.78 342.982 1343.9 342.158 1348.02 342.158C1351.32 342.158 1353.79 342.323 1355.6 342.817C1357.41 343.312 1359.23 343.806 1361.2 344.466V315.127H1381.63V411.055H1362.36L1361.53 404.297ZM1361.04 362.102C1359.56 361.278 1358.07 360.619 1356.42 360.289C1354.78 359.959 1352.63 359.794 1350.16 359.794C1344.89 359.794 1340.77 361.608 1337.81 365.069C1334.84 368.695 1333.36 373.145 1333.36 378.749C1333.36 383.694 1334.51 387.65 1336.98 390.781C1339.45 393.913 1342.91 395.397 1347.69 395.397C1350 395.397 1351.98 395.067 1353.62 394.243C1355.27 393.419 1356.75 392.43 1357.74 390.946C1358.9 389.628 1359.56 387.979 1360.05 386.166C1360.54 384.353 1360.71 382.54 1360.71 380.562V362.102H1361.04Z" fill="white"/>
		<path d="M1460.56 403.638C1459.73 404.132 1458.58 404.956 1457.1 405.945C1455.61 407.099 1453.64 408.088 1451.17 409.242C1448.69 410.231 1445.89 411.22 1442.43 412.044C1439.14 412.868 1435.18 413.198 1430.9 413.198C1425.13 413.198 1420.02 412.373 1415.41 410.56C1410.8 408.747 1406.84 406.275 1403.71 403.143C1400.42 400.012 1398.11 396.221 1396.3 391.77C1394.65 387.32 1393.83 382.375 1393.83 377.101C1393.83 372.486 1394.65 367.871 1396.13 363.585C1397.78 359.3 1399.92 355.344 1402.89 352.212C1405.85 348.916 1409.48 346.279 1413.76 344.301C1418.05 342.323 1422.99 341.334 1428.43 341.334C1433.87 341.334 1438.64 342.323 1442.76 344.136C1446.88 346.114 1450.34 348.751 1453.14 352.048C1455.94 355.509 1458.09 359.465 1459.57 364.245C1461.05 369.025 1461.71 374.134 1461.71 379.903V383.364H1413.76C1413.93 386.99 1415.41 390.122 1418.54 392.924C1421.67 395.726 1425.96 397.045 1431.39 397.045C1436.83 397.045 1441.12 396.221 1444.41 394.737C1447.71 393.089 1450.18 391.77 1451.83 390.617L1460.56 403.638ZM1442.43 370.178C1442.43 368.695 1442.1 367.211 1441.61 365.728C1441.12 364.245 1440.13 362.926 1438.97 361.607C1437.82 360.289 1436.34 359.3 1434.69 358.476C1433.04 357.652 1430.9 357.322 1428.43 357.322C1425.96 357.322 1423.98 357.652 1422.17 358.476C1420.35 359.3 1418.87 360.289 1417.72 361.607C1416.56 362.926 1415.58 364.245 1414.92 365.728C1414.26 367.211 1413.93 368.695 1413.93 370.178H1442.43Z" fill="white"/>
	</g>
	<defs>
		<filter id="filter0_d_2812_118" x="-1198.09" y="-573" width="3257.09" height="1570" filterUnits="userSpaceOnUse" color-interpolation-filters="sRGB">
			<feFlood flood-opacity="0" result="BackgroundImageFix"/>
			<feColorMatrix in="SourceAlpha" type="matrix" values="0 0 0 0 0 0 0 0 0 0 0 0 0 0 0 0 0 0 127 0" result="hardAlpha"/>
			<feOffset dy="4"/>
			<feGaussianBlur stdDeviation="2"/>
			<feComposite in2="hardAlpha" operator="out"/>
			<feColorMatrix type="matrix" values="0 0 0 0 0 0 0 0 0 0 0 0 0 0 0 0 0 0 0.25 0"/>
			<feBlend mode="normal" in2="BackgroundImageFix" result="effect1_dropShadow_2812_118"/>
			<feBlend mode="normal" in="SourceGraphic" in2="effect1_dropShadow_2812_118" result="shape"/>
		</filter>
		<linearGradient id="paint0_linear_2812_118" x1="825.603" y1="1670.5" x2="243.603" y2="-648.001" gradientUnits="userSpaceOnUse">
			<stop offset="0.265625" stop-color="#005AAB"/>
			<stop offset="0.333333" stop-color="#0A4F8D"/>
			<stop offset="0.697917" stop-color="#001C35"/>
		</linearGradient>
		<clipPath id="clip0_2812_118">
			<rect x="0.103638" width="1817.3" height="728" rx="32" fill="white"/>
		</clipPath>
	</defs>
</svg>


