<?xml version="1.0" encoding="UTF-8" standalone="no"?>
<!DOCTYPE svg PUBLIC "-//W3C//DTD SVG 1.1//EN" "http://www.w3.org/Graphics/SVG/1.1/DTD/svg11.dtd">
<svg width="24" height="24" viewBox="0 0 24 24" fill="none" xmlns="http://www.w3.org/2000/svg">
	<rect width="24" height="24" rx="12" fill="url(#paint0_linear_1544_4241)"/>
	<path d="M13.6187 11.9729C12.9644 13.2733 11.512 14.1669 9.86819 13.9196C8.25625 13.6882 7.01138 12.3399 6.86775 10.7043C6.72411 9.09271 7.64978 7.77629 8.75898 7.22579C8.18443 8.74964 8.35201 10.1538 9.54101 11.3027C10.7141 12.4596 12.1185 12.6032 13.6187 11.9729Z" fill="#FFC700"/>
	<path d="M14.0576 7.9917C14.1853 7.9917 14.2891 8.03957 14.3529 8.13531C14.4327 8.24701 14.4806 8.41455 14.4806 8.66986C14.4806 8.92516 14.4327 9.09271 14.3529 9.2044C14.2731 9.30014 14.1773 9.34801 14.0576 9.34801C13.9379 9.34801 13.8262 9.30014 13.7464 9.2044C13.6666 9.10866 13.6187 8.92516 13.6187 8.66986C13.6187 8.41455 13.6666 8.24701 13.7464 8.13531C13.8262 8.03957 13.93 7.9917 14.0576 7.9917ZM14.0576 8.19914C14.0257 8.19914 13.9938 8.2151 13.9778 8.23105C13.9459 8.24701 13.93 8.27892 13.914 8.34275C13.898 8.40657 13.8821 8.51827 13.8821 8.66986C13.8821 8.82942 13.8821 8.93314 13.898 8.98101C13.914 9.04484 13.93 9.07675 13.9619 9.09271C13.9938 9.10867 14.0098 9.12462 14.0417 9.12462C14.0736 9.12462 14.1055 9.10867 14.1215 9.09271C14.1534 9.07675 14.1694 9.04484 14.1853 8.98101C14.2013 8.91719 14.2172 8.80549 14.2172 8.6539C14.2172 8.49434 14.2172 8.39062 14.2013 8.34275C14.1853 8.27892 14.1694 8.24701 14.1374 8.23105C14.1215 8.2151 14.0896 8.19914 14.0576 8.19914Z" fill="#FFC700"/>
	<path d="M15.3105 9.32408H15.0631V8.36668C14.9673 8.46242 14.8636 8.52625 14.7359 8.55816V8.32679C14.7998 8.31083 14.8796 8.26296 14.9514 8.19914C15.0232 8.13531 15.0791 8.07149 15.111 7.9917H15.3105V9.32408Z" fill="#FFC700"/>
	<path d="M16.1085 7.9917C16.2362 7.9917 16.3399 8.03957 16.4037 8.13531C16.4835 8.24701 16.5314 8.41455 16.5314 8.66986C16.5314 8.92516 16.4835 9.09271 16.4037 9.2044C16.3239 9.30014 16.2282 9.34801 16.1085 9.34801C15.9888 9.34801 15.8771 9.30014 15.7973 9.2044C15.7175 9.10866 15.6696 8.92516 15.6696 8.66986C15.6696 8.41455 15.7175 8.24701 15.7973 8.13531C15.8691 8.03957 15.9808 7.9917 16.1085 7.9917ZM16.1085 8.19914C16.0766 8.19914 16.0446 8.2151 16.0287 8.23105C15.9968 8.24701 15.9808 8.27892 15.9648 8.34275C15.9489 8.40657 15.9329 8.51827 15.9329 8.66986C15.9329 8.82942 15.9329 8.93314 15.9489 8.98101C15.9648 9.04484 15.9808 9.07675 16.0127 9.09271C16.0446 9.10867 16.0606 9.12462 16.0925 9.12462C16.1244 9.12462 16.1564 9.10867 16.1723 9.09271C16.2042 9.07675 16.2202 9.04484 16.2362 8.98101C16.2521 8.91719 16.2681 8.80549 16.2681 8.6539C16.2681 8.49434 16.2681 8.39062 16.2521 8.34275C16.2362 8.27892 16.2202 8.24701 16.1883 8.23105C16.1643 8.2151 16.1404 8.19914 16.1085 8.19914Z" fill="#FFC700"/>
	<path d="M11.5918 17.0072C11.5918 17.0072 13.5469 16.8795 14.9195 15.8663C15.8292 15.1961 16.5154 13.5765 16.5154 13.5765C16.4835 13.9196 16.3239 15.1722 15.3105 16.0817C14.5285 16.7838 13.5788 16.9434 13.1399 17.0231C12.9245 17.055 12.733 17.071 12.3739 17.087C12.3739 17.087 11.935 17.1029 11.5918 17.0072Z" fill="#FFC700"/>
	<path d="M11.927 2.4787C12.4058 2.4787 12.8766 2.6622 13.2437 3.02122L20.8326 10.6086C21.5587 11.3346 21.5587 12.5074 20.8326 13.2334L13.2437 20.8208C12.8846 21.1798 12.4058 21.3633 11.927 21.3633C11.4482 21.3633 10.9774 21.1798 10.6103 20.8208L3.02941 13.2334C2.30324 12.5074 2.30324 11.3346 3.02941 10.6086L10.6103 3.0292C10.9774 2.6622 11.4482 2.4787 11.927 2.4787ZM11.927 2C11.3046 2 10.7141 2.23935 10.2752 2.68613L2.68627 10.2735C2.24738 10.7123 2 11.3027 2 11.925C2 12.5473 2.2394 13.1377 2.68627 13.5765L10.2752 21.1639C10.7141 21.6027 11.3046 21.85 11.927 21.85C12.5494 21.85 13.1399 21.6107 13.5788 21.1639L21.1677 13.5765C22.0774 12.667 22.0774 11.183 21.1677 10.2735L13.5788 2.68613C13.1399 2.24733 12.5494 2 11.927 2Z" fill="#FFC700"/>
	<defs>
		<linearGradient id="paint0_linear_1544_4241" x1="19.9667" y1="45.5291" x2="7.10067" y2="-5.86727" gradientUnits="userSpaceOnUse">
			<stop offset="0.265625" stop-color="#005AAB"/>
			<stop offset="0.333333" stop-color="#0A4F8D"/>
			<stop offset="0.697917" stop-color="#001C35"/>
		</linearGradient>
	</defs>
</svg>
